# xmcd
#
# Track frame offsets:
#	150
#	16867
#	40860
#	62670
#	78917
#	99290
#	117425
#	134492
#	149697
#	163162
#	180297
#	196562
#	217477
#
# Disc length: 3086 seconds
#
# Revision: 2
# Processed by: cddbd v1.5.2PL0 Copyright (c) Steve Scherf et al.
# Submitted via: EasyCDDAExtractor 15.3.0.1
#
DISCID=b30c0c0d
DTITLE=Mijares - Vive En Mi
DYEAR=1994
DGENRE=Latin
TTITLE0=Vive En Mi
TTITLE1=La Quiero A Morir
TTITLE2=Amor
TTITLE3=Como Duele Perder
TTITLE4=Para Los Dos
TTITLE5=Calorias
TTITLE6=Alma Fria
TTITLE7=Para Vivir
TTITLE8=Llevame
TTITLE9=Amarte A Ti
TTITLE10=Conocerte Fue Un Placer
TTITLE11=Lluvia De Amor
TTITLE12=Lola
EXTD=
EXTT0=
EXTT1=
EXTT2=
EXTT3=
EXTT4=
EXTT5=
EXTT6=
EXTT7=
EXTT8=
EXTT9=
EXTT10=
EXTT11=
EXTT12=
PLAYORDER=
